<?xml version="1.0" encoding="UTF-8"?>
<svg id="Livello_1" data-name="Livello 1" xmlns="http://www.w3.org/2000/svg" width="164.2mm" height="6.12mm" viewBox="0 0 465.44 17.34">
  <defs>
    <style>
      .cls-1 {
        fill: #ea0029;
      }
    </style>
  </defs>
  <path class="cls-1" d="m82.01,16h4l.78-4.43h5.23l2.19,4.43h4.43l-2.17-4.43,3.47-2.95L101.46,0h-16.63l-2.82,16Zm6.15-12.22h8.87l-.71,4h-8.87l.71-4ZM18.11,0h3.98l-2.82,16h-4l1.36-7.72-5.18,7.72h-3.63l-2.45-7.72-1.36,7.72H0L2.82,0h3.98l3.61,11.54L18.11,0Zm111.34,0h16.66l-.67,3.77h-12.89l-1.49,8.46h12.89l-.67,3.77h-16.66l2.82-16ZM51.13,0l-9.56,16h4l1.53-2.47h7.95l.66,2.47h4L55.79,0h-4.66Zm-1.83,10.01l3.47-6.08,1.33,6.08h-4.8ZM408.47,0h14.67l-.63,3.57h-10.63l-.45,2.54h8.84l-.67,3.79h-8.84l-.45,2.54h10.63l-.63,3.57h-14.67l2.82-16Zm-31.78,0h4l-2.82,16h-16.66l2.82-16h4l-2.16,12.23h8.66l2.16-12.23Zm88.19,3.13l-10.46,9.3h8.82l-.63,3.57h-14.51l.55-3.13,10.46-9.32h-8.82l.62-3.54h14.51l-.55,3.13ZM207.81,0h3.98l-2.82,16h-4l1.36-7.72-5.18,7.72h-3.63l-2.45-7.72-1.36,7.72h-4l2.82-16h3.98l3.61,11.54,7.7-11.54Zm108.3,16h9.31l.24,1.35h4l-.24-1.35h1.07l3.47-2.95,2.3-13.05h-17.32l-2.82,16Zm5.93-12.23h9.78l-1.49,8.46h-1.58l-.48-2.69h-4l.48,2.69h-4.2l1.49-8.46Zm-50.33,12.23h4l.78-4.43h5.23l2.19,4.43h4.43l-2.17-4.43,3.47-2.95,1.52-8.61h-16.63l-2.82,16Zm6.15-12.22h8.87l-.71,4h-8.87l.7-4Zm-37.03-3.77l-9.56,16h4l1.53-2.47h7.95l.66,2.47h4l-3.92-16h-4.66Zm-1.83,10.01l3.47-6.08,1.33,6.08h-4.8Z"/>
</svg>